<?xml version="1.0" encoding="utf-8"?>
<!-- Generator: Adobe Illustrator 23.0.2, SVG Export Plug-In . SVG Version: 6.00 Build 0)  -->
<svg version="1.1" id="Laag_1" xmlns="http://www.w3.org/2000/svg" xmlns:xlink="http://www.w3.org/1999/xlink" x="0px" y="0px"
	 viewBox="0 0 295 295" style="enable-background:new 0 0 295 295;" xml:space="preserve">
<style type="text/css">
	.st0{fill:#03A9FF;}
	.st1{fill:#818080;}
	.st2{fill:#B9B8B8;}
	.st3{fill:#E5E5E5;}
</style>
<polygon class="st0" points="196.6,243.6 70.6,254.6 70.6,44.6 196.6,33.6 "/>
<polygon class="st1" points="206.6,246.6 70.6,254.6 70.6,44.6 206.6,36.6 "/>
<polyline class="st2" points="70.6,44.6 213.6,40.6 213.6,250.6 70.6,254.6 "/>
<rect x="70.6" y="44.6" class="st3" width="148" height="210"/>
<rect x="87.6" y="194.1" class="st2" width="112.8" height="48.6"/>
<rect x="87.6" y="97.2" class="st0" width="112.8" height="15.2"/>
<rect x="87.6" y="65.1" transform="matrix(-1 -1.224647e-16 1.224647e-16 -1 287.9929 156.1347)" class="st2" width="112.8" height="25.9"/>
<rect x="87.6" y="118.5" class="st2" width="112.8" height="5.8"/>
<polyline class="st1" points="87.6,242.7 116,214 134.5,231.1 158,206.5 200.4,242.7 "/>
<rect x="72.7" y="58.1" transform="matrix(-1 -1.224647e-16 1.224647e-16 -1 146.3064 136.1347)" class="st2" width="1" height="20"/>
<rect x="73.2" y="224.6" transform="matrix(-1 -1.224647e-16 1.224647e-16 -1 147.3064 469.251)" class="st2" width="1" height="20"/>
<rect x="73.2" y="134.1" transform="matrix(-1 -1.224647e-16 1.224647e-16 -1 147.3064 288.1347)" class="st2" width="1" height="20"/>
</svg>
