<?xml version="1.0" encoding="utf-8"?>
<!-- Generator: Adobe Illustrator 23.0.2, SVG Export Plug-In . SVG Version: 6.00 Build 0)  -->
<svg version="1.1" id="Laag_1" xmlns="http://www.w3.org/2000/svg" xmlns:xlink="http://www.w3.org/1999/xlink" x="0px" y="0px"
	 viewBox="0 0 295 295" style="enable-background:new 0 0 295 295;" xml:space="preserve">
<style type="text/css">
	.st0{fill:#03A9FF;}
	.st1{fill:#B9B8B8;}
	.st2{fill:#FFFFFF;}
	.st3{fill:#E5E5E5;}
</style>
<g>
	<g>
		<g>
			<circle class="st0" cx="147.5" cy="147.5" r="96.5"/>
			<path class="st1" d="M147.5,54.5c51.3,0,93,41.7,93,93s-41.7,93-93,93s-93-41.7-93-93S96.2,54.5,147.5,54.5 M147.5,47.5
				c-55.2,0-100,44.8-100,100s44.8,100,100,100s100-44.8,100-100S202.7,47.5,147.5,47.5L147.5,47.5z"/>
		</g>
	</g>
</g>
<polygon class="st1" points="179.5,94.7 115.5,94.7 120.5,200.3 174.5,200.3 "/>
<polyline class="st2" points="178.4,116.9 179.5,94.7 115.5,94.7 116.6,116.9 "/>
<rect x="122.7" y="126.5" class="st3" width="50" height="9.2"/>
</svg>
