<?xml version="1.0" encoding="utf-8"?>
<!-- Generator: Adobe Illustrator 23.0.2, SVG Export Plug-In . SVG Version: 6.00 Build 0)  -->
<svg version="1.1" id="Laag_1" xmlns="http://www.w3.org/2000/svg" xmlns:xlink="http://www.w3.org/1999/xlink" x="0px" y="0px"
	 viewBox="0 0 295 295" style="enable-background:new 0 0 295 295;" xml:space="preserve">
<style type="text/css">
	.st0{fill:none;}
	.st1{fill:#B9B8B8;}
	.st2{fill:#E5E5E5;}
	.st3{fill:#818080;}
	.st4{fill:#03A9FF;}
</style>
<rect x="48.6" y="36.6" class="st0" width="148" height="210"/>
<rect x="56.1" y="66.2" class="st1" width="210" height="148"/>
<rect x="36.1" y="83.2" class="st2" width="210" height="148"/>
<rect x="59.7" y="165" class="st1" width="76" height="5"/>
<rect x="59.7" y="176.8" class="st1" width="76" height="5"/>
<rect x="59.7" y="190.4" class="st1" width="76" height="5"/>
<rect x="59.7" y="204" class="st1" width="76" height="5"/>
<g>
	<path class="st3" d="M181,203.4c0.3,0.4,0.4,0.8,0.4,1.3c0,0.7-0.3,1.2-0.8,1.6c-1,0.9-2.1,1.5-3.3,2s-2.4,0.7-3.6,0.7
		c-2.4,0-4.3-0.7-5.8-2.2s-2.6-3.6-3.1-6.3h-2.3c-0.4,0-0.7-0.1-1-0.4c-0.3-0.3-0.4-0.6-0.4-1s0.1-0.7,0.4-1c0.3-0.3,0.6-0.4,1-0.4
		h1.9c0-0.3,0-0.7,0-1.3s0-1,0-1.3h-1.9c-0.4,0-0.7-0.1-1-0.4c-0.3-0.3-0.4-0.6-0.4-1s0.1-0.7,0.4-1c0.3-0.3,0.6-0.4,1-0.4h2.3
		c0.5-2.7,1.6-4.8,3.1-6.3s3.5-2.2,5.8-2.2c1.2,0,2.4,0.2,3.6,0.7c1.2,0.5,2.3,1.1,3.3,2c0.3,0.2,0.5,0.5,0.6,0.7
		c0.1,0.2,0.2,0.5,0.2,0.9c0,0.5-0.1,0.9-0.4,1.3c-0.3,0.4-0.6,0.5-1,0.5c-0.2,0-0.4,0-0.6-0.1s-0.4-0.2-0.7-0.4
		c-0.9-0.7-1.7-1.2-2.4-1.5c-0.7-0.3-1.5-0.5-2.2-0.5c-1.3,0-2.3,0.4-3.1,1.2c-0.8,0.8-1.3,2-1.6,3.7h4.4c0.4,0,0.8,0.1,1,0.4
		c0.3,0.3,0.4,0.6,0.4,1s-0.1,0.7-0.4,1c-0.3,0.3-0.6,0.4-1,0.4h-4.7c0,0.3,0,0.7,0,1.3s0,1,0,1.3h4.7c0.4,0,0.8,0.1,1,0.4
		c0.3,0.3,0.4,0.6,0.4,1s-0.1,0.7-0.4,1c-0.3,0.3-0.6,0.4-1,0.4h-4.4c0.3,1.7,0.8,2.9,1.6,3.7c0.8,0.8,1.8,1.2,3.1,1.2
		c0.7,0,1.4-0.2,2.1-0.5c0.7-0.3,1.6-0.8,2.5-1.5c0.3-0.2,0.5-0.4,0.7-0.4c0.2-0.1,0.4-0.1,0.6-0.1
		C180.4,202.9,180.7,203.1,181,203.4z"/>
</g>
<rect x="190.3" y="188.9" class="st1" width="31.8" height="12.3"/>
<rect x="59.7" y="96.9" class="st4" width="55.6" height="34.9"/>
</svg>
