<?xml version="1.0" encoding="utf-8"?>
<!-- Generator: Adobe Illustrator 23.0.2, SVG Export Plug-In . SVG Version: 6.00 Build 0)  -->
<svg version="1.1" id="Laag_1" xmlns="http://www.w3.org/2000/svg" xmlns:xlink="http://www.w3.org/1999/xlink" x="0px" y="0px"
	 viewBox="0 0 295 295" style="enable-background:new 0 0 295 295;" xml:space="preserve">
<style type="text/css">
	.st0{fill:none;}
	.st1{fill:#B9B8B8;}
	.st2{fill:#E5E5E5;}
	.st3{fill:#818080;}
	.st4{fill:#03A9FF;}
</style>
<rect x="48.6" y="36.5" transform="matrix(-1 -4.489710e-11 4.489710e-11 -1 245.1613 283.0968)" class="st0" width="148" height="210"/>
<rect x="85.6" y="33.6" transform="matrix(-1 -4.489710e-11 4.489710e-11 -1 319.1613 277.2903)" class="st1" width="148" height="210"/>
<rect x="68.6" y="53.6" transform="matrix(-1 -4.489710e-11 4.489710e-11 -1 285.1613 317.2903)" class="st2" width="148" height="210"/>
<rect x="85.6" y="67.7" class="st3" width="112.8" height="48.6"/>
<rect x="85.6" y="126.1" class="st4" width="112.8" height="15.2"/>
<rect x="85.6" y="171.7" transform="matrix(-1 -1.224647e-16 1.224647e-16 -1 283.9929 423.6211)" class="st1" width="112.8" height="80.2"/>
<rect x="85.6" y="145.4" class="st1" width="112.8" height="5.8"/>
<polyline class="st1" points="85.6,116.4 114,81.4 132.5,102.2 156,72.3 198.4,116.4 "/>
</svg>
