<?xml version="1.0" encoding="utf-8"?>
<!-- Generator: Adobe Illustrator 23.0.2, SVG Export Plug-In . SVG Version: 6.00 Build 0)  -->
<svg version="1.1" id="Laag_1" xmlns="http://www.w3.org/2000/svg" xmlns:xlink="http://www.w3.org/1999/xlink" x="0px" y="0px"
	 viewBox="0 0 295 295" style="enable-background:new 0 0 295 295;" xml:space="preserve">
<style type="text/css">
	.st0{fill:#B9B8B8;}
	.st1{fill:#E5E5E5;}
	.st2{fill:#818080;}
	.st3{fill:#03A9FF;}
</style>
<g>
	<path class="st0" d="M131.5,46.6L94.4,79.9l51.2,181.3l86.3-24.4L180.7,55.5L131.5,46.6z M138.8,73.1c-2.9,0.8-6-0.9-6.8-3.8
		c-0.8-2.9,0.9-6,3.8-6.8c2.9-0.8,6,0.9,6.8,3.8C143.4,69.2,141.7,72.2,138.8,73.1z"/>
	
		<rect x="125.3" y="126.8" transform="matrix(0.9624 -0.2716 0.2716 0.9624 -30.1621 47.2713)" class="st1" width="60.9" height="11.7"/>
	
		<rect x="147.5" y="206.1" transform="matrix(0.9624 -0.2716 0.2716 0.9624 -50.8559 56.2973)" class="st1" width="60.9" height="11.7"/>
	
		<rect x="152.7" y="224.5" transform="matrix(0.9624 -0.2716 0.2716 0.9624 -55.6578 58.3987)" class="st1" width="60.9" height="11.7"/>
	
		<rect x="136.9" y="148.4" transform="matrix(0.9624 -0.2716 0.2716 0.9624 -41.0311 51.9978)" class="st2" width="60.9" height="51.7"/>
	<polyline class="st3" points="145.1,207.4 153.4,168.3 166.6,179.7 172.4,153 203.7,190.9 	"/>
</g>
<path class="st1" d="M141.9,45.6L97,67.6V256h89.7V67.6L141.9,45.6z M141.7,73.1c-3,0-5.5-2.5-5.5-5.5c0-3,2.5-5.5,5.5-5.5
	c3,0,5.5,2.5,5.5,5.5C147.2,70.6,144.7,73.1,141.7,73.1z"/>
<rect x="111.3" y="129.2" class="st0" width="60.9" height="11.7"/>
<rect x="111.2" y="211.5" class="st0" width="60.9" height="11.7"/>
<rect x="111.2" y="230.6" class="st0" width="60.9" height="11.7"/>
<g>
	<rect x="111.2" y="152.4" class="st0" width="60.9" height="51.7"/>
	<polyline class="st3" points="111.2,204.1 129.8,168.7 139.4,183.3 152.3,159.2 172.1,204.1 	"/>
</g>
</svg>
