<?xml version="1.0" encoding="utf-8"?>
<!-- Generator: Adobe Illustrator 23.0.2, SVG Export Plug-In . SVG Version: 6.00 Build 0)  -->
<svg version="1.1" id="Laag_1" xmlns="http://www.w3.org/2000/svg" xmlns:xlink="http://www.w3.org/1999/xlink" x="0px" y="0px"
	 viewBox="0 0 295 295" style="enable-background:new 0 0 295 295;" xml:space="preserve">
<style type="text/css">
	.st0{fill:#818080;}
	.st1{fill:#B9B8B8;}
	.st2{fill:none;}
	.st3{fill:#E5E5E5;}
	.st4{fill:#03A9FF;}
	.st5{fill:url(#SVGID_1_);}
</style>
<rect x="132.3" y="28.1" transform="matrix(-1 -9.435532e-11 9.435532e-11 -1 340.9235 283.4257)" class="st0" width="76.2" height="227.3"/>
<ellipse class="st1" cx="208.6" cy="246.1" rx="25" ry="5.6"/>
<rect x="48.6" y="36.5" transform="matrix(-1 -4.489710e-11 4.489710e-11 -1 245.1613 283.0968)" class="st2" width="148" height="210"/>
<rect x="183.6" y="33.6" transform="matrix(-1 -1.344597e-10 1.344597e-10 -1 417.1613 279.7383)" class="st1" width="50" height="212.4"/>
<rect x="68.6" y="53.6" transform="matrix(-1 -4.489710e-11 4.489710e-11 -1 285.1613 317.2903)" class="st3" width="148" height="210"/>
<rect x="85.6" y="102.7" class="st0" width="112.8" height="83"/>
<rect x="85.6" y="194.7" class="st1" width="112.8" height="53.6"/>
<polyline class="st1" points="85.6,185.7 114,126 132.5,161.6 156,110.5 198.4,185.7 "/>
<rect x="85.6" y="70.5" class="st4" width="112.8" height="24.3"/>
<linearGradient id="SVGID_1_" gradientUnits="userSpaceOnUse" x1="183.5684" y1="33.6452" x2="233.5806" y2="33.6452">
	<stop  offset="0" style="stop-color:#B9B8B8"/>
	<stop  offset="1" style="stop-color:#818080"/>
</linearGradient>
<ellipse class="st5" cx="208.6" cy="33.6" rx="25" ry="5.6"/>
</svg>
