<?xml version="1.0" encoding="utf-8"?>
<!-- Generator: Adobe Illustrator 23.0.2, SVG Export Plug-In . SVG Version: 6.00 Build 0)  -->
<svg version="1.1" id="Laag_1" xmlns="http://www.w3.org/2000/svg" xmlns:xlink="http://www.w3.org/1999/xlink" x="0px" y="0px"
	 viewBox="0 0 295 295" style="enable-background:new 0 0 295 295;" xml:space="preserve">
<style type="text/css">
	.st0{fill:#818080;}
	.st1{fill:none;}
	.st2{fill:#E5E5E5;}
	.st3{fill:#03A9FF;}
	.st4{fill:#B9B8B8;}
</style>
<rect x="138.1" y="39.8" transform="matrix(-1 -1.458830e-09 1.458830e-09 -1 281.1613 311.6147)" class="st0" width="5" height="232"/>
<rect x="63.6" y="39.8" transform="matrix(-1 -3.082990e-12 3.082990e-12 -1 281.1613 94.6146)" class="st0" width="154" height="15"/>
<rect x="48.6" y="36.5" transform="matrix(-1 -4.489710e-11 4.489710e-11 -1 245.1613 283.0968)" class="st1" width="148" height="210"/>
<rect x="66.6" y="42.6" transform="matrix(-1 -4.128399e-11 4.128399e-11 -1 281.1613 278.3925)" class="st2" width="148" height="193.1"/>
<rect x="81.1" y="265.5" transform="matrix(-1 -1.864853e-12 1.864853e-12 -1 281.1613 538)" class="st0" width="119" height="7"/>
<rect x="83.6" y="53.8" class="st0" width="112.8" height="48.6"/>
<rect x="83.6" y="112.1" class="st3" width="112.8" height="15.2"/>
<polyline class="st4" points="83.6,102.4 112,67.4 130.5,88.3 154,58.3 196.4,102.4 "/>
<rect x="83.6" y="140.1" class="st4" width="112.8" height="80.9"/>
</svg>
