<?xml version="1.0" encoding="utf-8"?>
<!-- Generator: Adobe Illustrator 23.0.2, SVG Export Plug-In . SVG Version: 6.00 Build 0)  -->
<svg version="1.1" id="Laag_1" xmlns="http://www.w3.org/2000/svg" xmlns:xlink="http://www.w3.org/1999/xlink" x="0px" y="0px"
	 viewBox="0 0 295 295" style="enable-background:new 0 0 295 295;" xml:space="preserve">
<style type="text/css">
	.st0{fill:#E5E5E5;}
	.st1{fill:#818080;}
	.st2{fill:#F2F2F2;}
	.st3{fill:#03A9FF;}
</style>
<g>
	<g>
		<g>
			<circle class="st0" cx="147.5" cy="135.1" r="96.5"/>
			<path class="st1" d="M147.5,42.1c51.3,0,93,41.7,93,93s-41.7,93-93,93s-93-41.7-93-93S96.2,42.1,147.5,42.1 M147.5,35.1
				c-55.2,0-100,44.8-100,100s44.8,100,100,100s100-44.8,100-100S202.7,35.1,147.5,35.1L147.5,35.1z"/>
		</g>
	</g>
	<g>
		<g>
			<path class="st2" d="M247.5,135.1c0,55.2-44.8,100-100,100"/>
		</g>
	</g>
	<g>
		<g>
			<path class="st3" d="M147.5,235.1c0-55.2,44.8-100,100-100"/>
		</g>
	</g>
</g>
</svg>
