<?xml version="1.0" encoding="utf-8"?>
<!-- Generator: Adobe Illustrator 23.0.2, SVG Export Plug-In . SVG Version: 6.00 Build 0)  -->
<svg version="1.1" id="Laag_1" xmlns="http://www.w3.org/2000/svg" xmlns:xlink="http://www.w3.org/1999/xlink" x="0px" y="0px"
	 viewBox="0 0 295 295" style="enable-background:new 0 0 295 295;" xml:space="preserve">
<style type="text/css">
	.st0{fill:#03A9FF;}
	.st1{fill:#E5E5E5;}
	.st2{fill:#818080;}
	.st3{fill:#B9B8B8;}
</style>
<rect x="52.5" y="25.2" class="st0" width="210" height="224.1"/>
<rect x="25.6" y="49.2" transform="matrix(2.968807e-11 1 -1 2.968807e-11 291.654 16.6539)" class="st1" width="223.8" height="210"/>
<rect x="52.5" y="60.2" class="st0" width="30" height="30"/>
<rect x="89.2" y="60.2" class="st2" width="97.1" height="7.7"/>
<rect x="51.8" y="106" class="st3" width="171.6" height="15.3"/>
<rect x="51.8" y="128.5" class="st3" width="80.6" height="17.4"/>
<rect x="89.2" y="73" class="st3" width="97.1" height="7.7"/>
<rect x="51.7" y="151" class="st3" width="80.6" height="17.4"/>
<rect x="52" y="173.5" class="st3" width="80.6" height="17.4"/>
<rect x="52" y="196" class="st3" width="80.6" height="17.4"/>
<rect x="51.9" y="218.5" class="st3" width="80.6" height="17.4"/>
<rect x="52.2" y="240.9" class="st3" width="80.6" height="17.4"/>
<rect x="142.5" y="128.5" class="st3" width="80.6" height="17.4"/>
<rect x="142.4" y="151" class="st3" width="80.6" height="17.4"/>
<rect x="142.6" y="173.5" class="st3" width="80.6" height="17.4"/>
<rect x="142.7" y="196" class="st3" width="80.6" height="17.4"/>
<rect x="142.6" y="218.5" class="st3" width="80.6" height="17.4"/>
<rect x="142.8" y="240.9" class="st3" width="80.6" height="17.4"/>
</svg>
