<?xml version="1.0" encoding="utf-8"?>
<!-- Generator: Adobe Illustrator 23.0.2, SVG Export Plug-In . SVG Version: 6.00 Build 0)  -->
<svg version="1.1" id="Laag_1" xmlns="http://www.w3.org/2000/svg" xmlns:xlink="http://www.w3.org/1999/xlink" x="0px" y="0px"
	 viewBox="0 0 295 295" style="enable-background:new 0 0 295 295;" xml:space="preserve">
<style type="text/css">
	.st0{fill:none;}
	.st1{fill:#03A9FF;}
	.st2{fill:#E5E5E5;}
	.st3{fill:#818080;}
	.st4{fill:#B9B8B8;}
</style>
<rect x="48.6" y="36.5" transform="matrix(-1 -4.489710e-11 4.489710e-11 -1 245.1613 283.0968)" class="st0" width="148" height="210"/>
<rect x="83.5" y="34" transform="matrix(4.489724e-11 1 -1 4.489724e-11 296.5 -18.5)" class="st1" width="148" height="210"/>
<rect x="63.5" y="51" transform="matrix(4.489724e-11 1 -1 4.489724e-11 293.5 18.5)" class="st2" width="148" height="210"/>
<rect x="192.7" y="100" class="st1" width="30" height="30"/>
<rect x="77.8" y="155.5" transform="matrix(-1.836970e-16 1 -1 -1.836970e-16 293.7763 18.2237)" class="st3" width="120" height="1"/>
<rect x="152.5" y="156.5" class="st4" width="70.6" height="6.2"/>
<rect x="152.6" y="167.8" class="st4" width="70.6" height="6.2"/>
<rect x="152.6" y="179" class="st4" width="70.6" height="6.2"/>
<rect x="152.9" y="190.2" class="st4" width="70.6" height="6.2"/>
</svg>
