<?xml version="1.0" encoding="utf-8"?>
<!-- Generator: Adobe Illustrator 23.0.2, SVG Export Plug-In . SVG Version: 6.00 Build 0)  -->
<svg version="1.1" id="Laag_1" xmlns="http://www.w3.org/2000/svg" xmlns:xlink="http://www.w3.org/1999/xlink" x="0px" y="0px"
	 viewBox="0 0 295 295" style="enable-background:new 0 0 295 295;" xml:space="preserve">
<style type="text/css">
	.st0{fill:none;}
	.st1{fill:#03A9FF;}
	.st2{fill:#E5E5E5;}
	.st3{fill:#818080;}
</style>
<rect x="48.6" y="36.5" transform="matrix(-1 -4.489710e-11 4.489710e-11 -1 245.1613 283.0968)" class="st0" width="148" height="210"/>
<rect x="85.6" y="33.6" transform="matrix(-1 -4.489710e-11 4.489710e-11 -1 319.1613 277.2903)" class="st1" width="148" height="210"/>
<rect x="68.6" y="53.6" transform="matrix(-1 -4.489710e-11 4.489710e-11 -1 285.1613 317.2903)" class="st2" width="148" height="210"/>
<rect x="87.1" y="67.7" class="st1" width="23.5" height="23.5"/>
<rect x="87.1" y="253.6" class="st3" width="109.5" height="3.4"/>
<rect x="117.3" y="67.7" class="st3" width="80" height="2"/>
<rect x="117.3" y="71.1" class="st3" width="80" height="2"/>
<rect x="117.3" y="74.4" class="st3" width="40" height="2"/>
<rect x="117.3" y="77.7" class="st3" width="26.7" height="2"/>
</svg>
