<?xml version="1.0" encoding="utf-8"?>
<!-- Generator: Adobe Illustrator 23.0.2, SVG Export Plug-In . SVG Version: 6.00 Build 0)  -->
<svg version="1.1" id="Laag_1" xmlns="http://www.w3.org/2000/svg" xmlns:xlink="http://www.w3.org/1999/xlink" x="0px" y="0px"
	 viewBox="0 0 295 295" style="enable-background:new 0 0 295 295;" xml:space="preserve">
<style type="text/css">
	.st0{fill:#E5E5E5;}
	.st1{fill:#818080;}
	.st2{fill:#B9B8B8;}
	.st3{fill:#03A9FF;}
</style>
<rect x="73.5" y="44.5" transform="matrix(4.489748e-11 -1 1 4.489748e-11 -2.0399 297.0399)" class="st0" width="148" height="210"/>
<g>
	<rect x="42.5" y="210" class="st1" width="210" height="13.6"/>
</g>
<rect x="65.2" y="187.2" class="st2" width="11.1" height="19"/>
<rect x="79.8" y="187.2" class="st2" width="11.1" height="19"/>
<rect x="94.3" y="187.2" class="st2" width="11.1" height="19"/>
<rect x="108.9" y="187.2" class="st2" width="11.1" height="19"/>
<rect x="123.4" y="187.2" class="st2" width="11.1" height="19"/>
<rect x="138" y="187.2" class="st2" width="11.1" height="19"/>
<rect x="152.5" y="187.2" class="st2" width="11.1" height="19"/>
<rect x="167.1" y="187.2" class="st2" width="11.1" height="19"/>
<rect x="181.6" y="187.2" class="st2" width="11.1" height="19"/>
<rect x="196.2" y="187.2" class="st2" width="11.1" height="19"/>
<rect x="210.8" y="187.2" class="st2" width="11.1" height="19"/>
<rect x="225.3" y="187.2" class="st2" width="11.1" height="19"/>
<rect x="142" y="127.7" class="st2" width="11.1" height="19"/>
<rect x="105.4" y="89.2" class="st3" width="87.3" height="48"/>
<g>
	<rect x="122.6" y="157.3" class="st1" width="53" height="19"/>
	<rect x="126.9" y="161.4" class="st2" width="36.7" height="12.5"/>
	<rect x="165.3" y="161.4" class="st2" width="7.3" height="12.5"/>
</g>
</svg>
