<?xml version="1.0" encoding="utf-8"?>
<!-- Generator: Adobe Illustrator 23.0.2, SVG Export Plug-In . SVG Version: 6.00 Build 0)  -->
<svg version="1.1" id="Laag_1" xmlns="http://www.w3.org/2000/svg" xmlns:xlink="http://www.w3.org/1999/xlink" x="0px" y="0px"
	 viewBox="0 0 295 295" style="enable-background:new 0 0 295 295;" xml:space="preserve">
<style type="text/css">
	.st0{fill:none;}
	.st1{fill:#818080;}
	.st2{fill:#B9B8B8;}
	.st3{fill:#E5E5E5;}
	.st4{fill:#03A9FF;}
</style>
<g>
	<ellipse class="st0" cx="174.2" cy="75.1" rx="32.6" ry="29.9"/>
	<path class="st1" d="M204.7,105.1h14.4V74.9C219.1,86.8,213.6,97.6,204.7,105.1z"/>
	<path class="st1" d="M129.5,105.1h14.4c-8.9-7.5-14.4-18.2-14.4-30.1v165.6h89.7V139.2h-89.7V105.1z"/>
	<path class="st1" d="M143.8,105.1h60.9c8.9-7.5,14.4-18.2,14.4-30.1c0-22.7-20.1-41.1-44.9-41.1c-24.8,0-44.9,18.4-44.9,41.1
		C129.4,86.8,135,97.6,143.8,105.1z M174.2,45.2c18,0,32.6,13.4,32.6,29.9c0,16.5-14.6,29.9-32.6,29.9c-18,0-32.6-13.4-32.6-29.9
		C141.6,58.6,156.2,45.2,174.2,45.2z M135.5,79.4c-3.3,0-6.1-2.3-6.1-5.1c0-2.8,2.7-5.1,6.1-5.1c3.3,0,6.1,2.3,6.1,5.1
		C141.6,77.2,138.9,79.4,135.5,79.4z"/>
	<ellipse class="st1" cx="135.5" cy="74.4" rx="6.1" ry="5.1"/>
	<path class="st1" d="M174.3,116c-11.8,0-22.4-4.1-30.4-10.9h-14.4v34.1h89.7v-34.1h-14.4C196.7,111.8,186,116,174.3,116z"/>
	<path class="st1" d="M174.3,116c11.8,0,22.4-4.1,30.4-10.9h-60.9C151.8,111.8,162.5,116,174.3,116z"/>
</g>
<rect x="143.8" y="122.1" class="st2" width="60.9" height="11.7"/>
<rect x="143.8" y="139.9" class="st2" width="60.9" height="11.7"/>
<rect x="143.8" y="157.7" class="st2" width="60.9" height="11.7"/>
<rect x="143.8" y="175.6" class="st3" width="60.9" height="51.7"/>
<polyline class="st2" points="143.8,227.2 162.3,191.8 171.9,206.4 184.8,182.3 204.6,227.2 "/>
<g>
	<g>
		<ellipse class="st0" cx="141.7" cy="90.6" rx="32.6" ry="29.9"/>
		<path class="st3" d="M172.2,120.6h14.4V90.4C186.6,102.3,181.1,113.1,172.2,120.6z"/>
		<path class="st3" d="M97,120.6h14.4c-8.9-7.5-14.4-18.2-14.4-30.1V256h89.7V154.6H97V120.6z"/>
		<path class="st3" d="M111.3,120.6h60.9c8.9-7.5,14.4-18.2,14.4-30.1c0-22.7-20.1-41.1-44.9-41.1c-24.8,0-44.9,18.4-44.9,41.1
			C96.9,102.3,102.5,113.1,111.3,120.6z M141.7,60.7c18,0,32.6,13.4,32.6,29.9c0,16.5-14.6,29.9-32.6,29.9
			c-18,0-32.6-13.4-32.6-29.9C109.1,74.1,123.7,60.7,141.7,60.7z M103,94.9c-3.3,0-6.1-2.3-6.1-5.1c0-2.8,2.7-5.1,6.1-5.1
			c3.3,0,6.1,2.3,6.1,5.1C109.1,92.6,106.4,94.9,103,94.9z"/>
		<ellipse class="st3" cx="103" cy="89.8" rx="6.1" ry="5.1"/>
		<path class="st3" d="M141.8,131.5c-11.8,0-22.4-4.1-30.4-10.9H97v34.1h89.7v-34.1h-14.4C164.2,127.3,153.5,131.5,141.8,131.5z"/>
		<path class="st3" d="M141.8,131.5c11.8,0,22.4-4.1,30.4-10.9h-60.9C119.3,127.3,130,131.5,141.8,131.5z"/>
	</g>
	<rect x="111.3" y="137.6" class="st2" width="60.9" height="11.7"/>
	<rect x="111.2" y="155.4" class="st2" width="60.9" height="11.7"/>
	<rect x="111.2" y="173.2" class="st2" width="60.9" height="11.7"/>
	<rect x="111.2" y="191" class="st2" width="60.9" height="51.7"/>
	<polyline class="st4" points="111.2,242.7 129.8,207.3 139.4,221.9 152.3,197.8 172.1,242.7 	"/>
</g>
</svg>
