<?xml version="1.0" encoding="utf-8"?>
<!-- Generator: Adobe Illustrator 23.0.2, SVG Export Plug-In . SVG Version: 6.00 Build 0)  -->
<svg version="1.1" id="Laag_1" xmlns="http://www.w3.org/2000/svg" xmlns:xlink="http://www.w3.org/1999/xlink" x="0px" y="0px"
	 viewBox="0 0 295 295" style="enable-background:new 0 0 295 295;" xml:space="preserve">
<style type="text/css">
	.st0{fill:#818080;}
	.st1{fill:none;}
	.st2{fill:#E5E5E5;}
	.st3{fill:#B9B8B8;}
	.st4{fill:#03A9FF;}
</style>
<g>
	<path class="st0" d="M145.1,89.6c-0.3-3.9-0.4-6.4-0.4-6.4l-0.3-24.5h2.3c0,0,0,0-0.3-9.3c0.5-4.5-9.6-5.6-9.6-5.6s-10.1,1-9.6,5.6
		c-0.3,9.3-0.3,9.3-0.3,9.3h2.3L129,83.2c0,0-0.1,3-0.5,7.6C134,88.1,139.9,87.8,145.1,89.6z"/>
	<path class="st0" d="M153.3,187.3l-32-63c-5.2,11.8-12,17.8-12,28.2c0,11.6,0,91.5,0,105.6c0,14.1,0,14.1,7.6,14.1c7.6,0,20,0,20,0
		s12.4,0,20,0c7.6,0,7.6,0,7.6-14.1c0-9.4,0-48.2,0-76.4L153.3,187.3z"/>
	<path class="st1" d="M150.5,101.3c-1.1-2.2-2.8-4-4.8-5.2c0.7,5.9,1.8,13,3.6,19.4C152.2,111.2,152.8,105.9,150.5,101.3z"/>
	<path class="st1" d="M123.1,115.2c0.3,0.5,0.6,1,0.9,1.5c1.8-6.3,3-13.3,3.8-19.3C122.2,101.7,120.1,109.1,123.1,115.2z"/>
	<path class="st0" d="M143.2,120.8c2.6-1.3,4.6-3.2,6.1-5.3c-1.8-6.4-2.9-13.5-3.6-19.4c-4.3-2.7-10.1-3-15.2-0.4
		c-1,0.5-1.9,1.1-2.7,1.7c-0.7,6-1.9,13-3.8,19.3C128,122.4,136.2,124.3,143.2,120.8z"/>
	<path class="st2" d="M156,114.3l6.1-3.1l-6.4-12.7C158.2,103.6,158.2,109.3,156,114.3z"/>
	<path class="st2" d="M164.4,152.4c0,3.9,0,15.2,0,29.2l26.6-13.5l-21.6-42.6l-12.9,6.6C160.5,139.3,164.4,144.6,164.4,152.4z"/>
	<path class="st2" d="M118,117.7l3.3,6.5c0.2-0.5,0.4-0.9,0.6-1.4C120.3,121.4,119,119.7,118,117.7z"/>
	<path class="st2" d="M164.4,181.6c0-14,0-25.4,0-29.2c0-7.8-3.9-13.1-8-20.3l-24.7,12.5l-7.3-14.3l6-3.1c-3.2-0.8-6.2-2.3-8.6-4.5
		c-0.2,0.5-0.4,0.9-0.6,1.4l32,63L164.4,181.6z"/>
	<path class="st2" d="M121.9,122.8c0.4-1,0.8-2,1.2-3.1c0.3-1,0.7-2,1-3.1c-0.3-0.5-0.6-1-0.9-1.5c-3.1-6-1-13.4,4.7-17.8
		c0.3-2.4,0.5-4.7,0.7-6.7c-0.1,0.1-0.3,0.1-0.4,0.2c-10.4,5.3-14.9,17.3-10.1,26.8C119,119.7,120.3,121.4,121.9,122.8z
		 M117.9,117.4c-0.6-1.2,0.1-2.7,1.5-3.4c1.4-0.7,3-0.3,3.6,0.8c0.6,1.2-0.1,2.7-1.5,3.4C120.1,119,118.5,118.6,117.9,117.4z"/>
	<path class="st2" d="M150.5,101.3c2.3,4.6,1.7,9.9-1.2,14.2c0.2,0.7,0.4,1.3,0.6,2l6.2-3.1c2.1-5,2.2-10.7-0.4-15.7
		c-2.2-4.4-6.1-7.5-10.6-9c0.2,1.9,0.4,4.1,0.6,6.5C147.7,97.3,149.4,99.1,150.5,101.3z"/>
	<path class="st2" d="M149.3,115.5c-1.5,2.2-3.5,4-6.1,5.3c-7,3.5-15.2,1.7-19.2-4.1c-0.3,1-0.6,2.1-1,3.1c-0.4,1.1-0.8,2.1-1.2,3.1
		c2.4,2.2,5.3,3.7,8.6,4.5l19.4-9.8C149.7,116.8,149.5,116.1,149.3,115.5z"/>
	<path class="st0" d="M130.5,95.7c5.2-2.6,11-2.3,15.2,0.4c-0.3-2.4-0.5-4.6-0.6-6.5c-5.1-1.8-11.1-1.5-16.6,1.2
		c-0.2,2-0.4,4.2-0.7,6.7C128.6,96.8,129.5,96.2,130.5,95.7z"/>
	<path class="st2" d="M123,114.9c-0.6-1.2-2.2-1.6-3.6-0.8c-1.4,0.7-2.1,2.2-1.5,3.4c0.6,1.2,2.2,1.6,3.6,0.8
		C122.9,117.6,123.6,116.1,123,114.9z"/>
	<path class="st2" d="M151.2,121.4c1.6,4.2,3.4,7.7,5.2,10.8l12.9-6.6l-7.3-14.3l-6.1,3.1C154.9,116.9,153.3,119.3,151.2,121.4z"/>
	<path class="st2" d="M145.6,125.4c-4.9,2.5-10.3,3-15.1,1.9l-6,3.1l7.3,14.3l24.7-12.5c-1.8-3.1-3.6-6.6-5.2-10.8
		C149.6,122.9,147.7,124.3,145.6,125.4z"/>
	<path class="st2" d="M151.2,121.4c2.1-2.1,3.7-4.4,4.8-7l-6.2,3.1c0.2,0.8,0.5,1.5,0.7,2.3C150.8,120.3,151,120.8,151.2,121.4z"/>
	<path class="st2" d="M145.6,125.4c2.1-1.1,4-2.5,5.6-4c-0.2-0.5-0.4-1.1-0.6-1.6c-0.3-0.7-0.5-1.5-0.7-2.3l-19.4,9.8
		C135.3,128.4,140.6,127.9,145.6,125.4z"/>
</g>
<rect x="146.6" y="153.7" transform="matrix(0.892 -0.4521 0.4521 0.892 -53.3419 89.6565)" class="st3" width="28.7" height="5.5"/>
<rect x="150.3" y="161.2" transform="matrix(0.892 -0.4521 0.4521 0.892 -56.3252 92.1683)" class="st3" width="28.7" height="5.5"/>
<rect x="154.1" y="168.7" transform="matrix(0.892 -0.4521 0.4521 0.892 -59.2986 94.6918)" class="st3" width="28.7" height="5.5"/>
<rect x="137.6" y="125.9" transform="matrix(0.892 -0.4521 0.4521 0.892 -45.9902 83.607)" class="st3" width="28.7" height="24.3"/>
<polyline class="st4" points="144.6,155.4 144.9,136.5 152,140.6 152.3,127.8 170.2,142.4 "/>
</svg>
