<?xml version="1.0" encoding="utf-8"?>
<!-- Generator: Adobe Illustrator 23.0.2, SVG Export Plug-In . SVG Version: 6.00 Build 0)  -->
<svg version="1.1" id="Laag_1" xmlns="http://www.w3.org/2000/svg" xmlns:xlink="http://www.w3.org/1999/xlink" x="0px" y="0px"
	 viewBox="0 0 295 295" style="enable-background:new 0 0 295 295;" xml:space="preserve">
<style type="text/css">
	.st0{fill:#E5E5E5;}
	.st1{fill:#818080;}
	.st2{fill:#B9B8B8;}
	.st3{fill:#03A9FF;}
</style>
<rect x="73.5" y="44.5" transform="matrix(4.489748e-11 -1 1 4.489748e-11 -2.0399 297.0399)" class="st0" width="148" height="210"/>
<g>
	<rect x="42.5" y="75.5" class="st1" width="210" height="8.6"/>
</g>
<rect x="51.3" y="176.6" class="st2" width="44.6" height="40.3"/>
<rect x="51.3" y="89.2" class="st3" width="192.1" height="74.5"/>
<rect x="46" y="70.9" class="st2" width="1.9" height="8.7"/>
<rect x="235.5" y="71.2" class="st2" width="1.9" height="8.7"/>
<rect x="224.4" y="71.2" class="st2" width="1.9" height="8.7"/>
<rect x="213.2" y="71.2" class="st2" width="1.9" height="8.7"/>
<rect x="202.1" y="71.2" class="st2" width="1.9" height="8.7"/>
<rect x="190.9" y="71.2" class="st2" width="1.9" height="8.7"/>
<rect x="179.8" y="71.2" class="st2" width="1.9" height="8.7"/>
<rect x="168.6" y="71.2" class="st2" width="1.9" height="8.7"/>
<rect x="157.5" y="71.2" class="st2" width="1.9" height="8.7"/>
<rect x="146.3" y="71.2" class="st2" width="1.9" height="8.7"/>
<rect x="135.2" y="71.2" class="st2" width="1.9" height="8.7"/>
<rect x="124" y="71.2" class="st2" width="1.9" height="8.7"/>
<rect x="112.9" y="71.2" class="st2" width="1.9" height="8.7"/>
<rect x="101.7" y="71.2" class="st2" width="1.9" height="8.7"/>
<rect x="90.6" y="71.2" class="st2" width="1.9" height="8.7"/>
<rect x="79.5" y="71.2" class="st2" width="1.9" height="8.7"/>
<rect x="68.3" y="71.2" class="st2" width="1.9" height="8.7"/>
<rect x="57.2" y="71.2" class="st2" width="1.9" height="8.7"/>
<rect x="246.7" y="71.2" class="st2" width="1.9" height="8.7"/>
<rect x="100.5" y="176.6" class="st2" width="44.6" height="40.3"/>
<rect x="149.6" y="176.6" class="st2" width="44.6" height="40.3"/>
<rect x="198.8" y="176.6" class="st2" width="44.6" height="40.3"/>
<polyline class="st2" points="51.3,163.6 99.7,109.6 131.3,141.8 171.3,95.5 243.4,163.6 "/>
</svg>
