<?xml version="1.0" encoding="utf-8"?>
<!-- Generator: Adobe Illustrator 23.0.2, SVG Export Plug-In . SVG Version: 6.00 Build 0)  -->
<svg version="1.1" id="Laag_1" xmlns="http://www.w3.org/2000/svg" xmlns:xlink="http://www.w3.org/1999/xlink" x="0px" y="0px"
	 viewBox="0 0 295 295" style="enable-background:new 0 0 295 295;" xml:space="preserve">
<style type="text/css">
	.st0{fill:#818080;}
	.st1{fill:#E5E5E5;}
	.st2{fill:#03A9FF;}
	.st3{fill:#B9B8B8;}
	.st4{fill:url(#SVGID_1_);}
</style>
<rect x="71.3" y="45.4" transform="matrix(-1 -4.224233e-11 4.224233e-11 -1 290.6689 288.3399)" class="st0" width="148" height="197.6"/>
<rect x="68.6" y="53.6" transform="matrix(-1 -4.489710e-11 4.489710e-11 -1 285.1613 317.2903)" class="st1" width="148" height="210"/>
<rect x="81.5" y="70.1" transform="matrix(-1 -5.396909e-13 5.396909e-13 -1 281.0139 142.2947)" class="st2" width="118" height="2"/>
<rect x="81.5" y="83.8" transform="matrix(-1 -5.552340e-13 5.552340e-13 -1 281.0139 169.621)" class="st2" width="118" height="2"/>
<rect x="81.5" y="97.5" transform="matrix(-1 -5.552340e-13 5.552340e-13 -1 281.0139 196.9474)" class="st2" width="118" height="2"/>
<rect x="81.5" y="111.1" transform="matrix(-1 -5.552340e-13 5.552340e-13 -1 281.0139 224.2737)" class="st2" width="118" height="2"/>
<rect x="81.5" y="124.8" transform="matrix(-1 -5.552340e-13 5.552340e-13 -1 281.0139 251.6)" class="st2" width="118" height="2"/>
<rect x="81.5" y="138.5" transform="matrix(-1 -5.552340e-13 5.552340e-13 -1 281.0139 278.9263)" class="st2" width="118" height="2"/>
<rect x="81.5" y="152.1" transform="matrix(-1 -5.552340e-13 5.552340e-13 -1 281.0139 306.2526)" class="st2" width="118" height="2"/>
<rect x="81.5" y="165.8" transform="matrix(-1 -5.552340e-13 5.552340e-13 -1 281.0139 333.5789)" class="st2" width="118" height="2"/>
<rect x="81.5" y="179.5" transform="matrix(-1 -5.552340e-13 5.552340e-13 -1 281.0139 360.9053)" class="st2" width="118" height="2"/>
<rect x="81.5" y="193.1" transform="matrix(-1 -5.552340e-13 5.552340e-13 -1 281.0139 388.2316)" class="st2" width="118" height="2"/>
<rect x="81.5" y="206.8" transform="matrix(-1 -5.552340e-13 5.552340e-13 -1 281.0139 415.5579)" class="st2" width="118" height="2"/>
<rect x="81.5" y="220.4" transform="matrix(-1 -5.552340e-13 5.552340e-13 -1 281.0139 442.8842)" class="st2" width="118" height="2"/>
<rect x="81.5" y="234.1" transform="matrix(-1 -5.552340e-13 5.552340e-13 -1 281.0139 470.2105)" class="st2" width="118" height="2"/>
<rect x="81.5" y="247.8" transform="matrix(-1 -5.552340e-13 5.552340e-13 -1 281.0139 497.5368)" class="st2" width="118" height="2"/>
<g>
	<ellipse class="st3" cx="66.3" cy="47.3" rx="5.6" ry="10.7"/>
	
		<rect x="129.3" y="-26.4" transform="matrix(3.132819e-10 -1 1 3.132819e-10 92.7129 187.3628)" class="st3" width="21.5" height="147.4"/>
	
		<linearGradient id="SVGID_1_" gradientUnits="userSpaceOnUse" x1="77.8448" y1="-22.9589" x2="99.31" y2="-22.9589" gradientTransform="matrix(0 1 -1 0 190.8029 -41.255)">
		<stop  offset="0" style="stop-color:#B9B8B8"/>
		<stop  offset="1" style="stop-color:#818080"/>
	</linearGradient>
	<ellipse class="st4" cx="213.8" cy="47.3" rx="5.6" ry="10.7"/>
</g>
</svg>
