<?xml version="1.0" encoding="utf-8"?>
<!-- Generator: Adobe Illustrator 23.0.2, SVG Export Plug-In . SVG Version: 6.00 Build 0)  -->
<svg version="1.1" id="Laag_1" xmlns="http://www.w3.org/2000/svg" xmlns:xlink="http://www.w3.org/1999/xlink" x="0px" y="0px"
	 viewBox="0 0 295 295" style="enable-background:new 0 0 295 295;" xml:space="preserve">
<style type="text/css">
	.st0{fill:#E5E5E5;}
	.st1{fill:#818080;}
	.st2{fill:#B9B8B8;}
	.st3{fill:#03A9FF;}
</style>
<g>
	<g>
		<ellipse class="st0" cx="135.7" cy="82.9" rx="29.3" ry="60.2"/>
		<rect x="135.7" y="22.7" class="st0" width="41.1" height="120.5"/>
		<rect x="146.5" y="82.9" class="st1" width="30.2" height="60.2"/>
		<rect x="106.4" y="82.9" class="st0" width="41.1" height="189.6"/>
		<ellipse class="st2" cx="176.7" cy="82.9" rx="29.3" ry="60.2"/>
	</g>
	<g>
		<circle class="st3" cx="126.9" cy="252" r="15.5"/>
		<path class="st1" d="M126.9,236.9c8.3,0,15,6.7,15,15s-6.7,15-15,15s-15-6.7-15-15S118.6,236.9,126.9,236.9 M126.9,235.9
			c-8.9,0-16,7.2-16,16c0,8.9,7.2,16,16,16s16-7.2,16-16C143,243.1,135.8,235.9,126.9,235.9L126.9,235.9z"/>
	</g>
	<g>
		<path class="st3" d="M126.9,226.1c-8.6,0-15.5-7-15.5-15.5c0-8.6,7-15.5,15.5-15.5s15.5,7,15.5,15.5
			C142.5,219.1,135.5,226.1,126.9,226.1z"/>
		<path class="st1" d="M126.9,195.5c8.3,0,15,6.7,15,15s-6.7,15-15,15s-15-6.7-15-15S118.6,195.5,126.9,195.5 M126.9,194.5
			c-8.9,0-16,7.2-16,16c0,8.9,7.2,16,16,16s16-7.2,16-16C143,201.7,135.8,194.5,126.9,194.5L126.9,194.5z"/>
	</g>
	<g>
		<path class="st3" d="M126.9,184.6c-8.6,0-15.5-7-15.5-15.5c0-8.6,7-15.5,15.5-15.5s15.5,7,15.5,15.5
			C142.5,177.6,135.5,184.6,126.9,184.6z"/>
		<path class="st1" d="M126.9,154c8.3,0,15,6.7,15,15s-6.7,15-15,15s-15-6.7-15-15S118.6,154,126.9,154 M126.9,153
			c-8.9,0-16,7.2-16,16c0,8.9,7.2,16,16,16s16-7.2,16-16C143,160.2,135.8,153,126.9,153L126.9,153z"/>
	</g>
	<g>
		<circle class="st3" cx="126.9" cy="129.1" r="15.5"/>
		<path class="st1" d="M126.9,114c8.3,0,15,6.7,15,15s-6.7,15-15,15s-15-6.7-15-15S118.6,114,126.9,114 M126.9,113
			c-8.9,0-16,7.2-16,16s7.2,16,16,16s16-7.2,16-16S135.8,113,126.9,113L126.9,113z"/>
	</g>
	<g>
		<circle class="st3" cx="126.9" cy="89.1" r="15.5"/>
		<path class="st1" d="M126.9,74.1c8.3,0,15,6.7,15,15s-6.7,15-15,15s-15-6.7-15-15S118.6,74.1,126.9,74.1 M126.9,73.1
			c-8.9,0-16,7.2-16,16s7.2,16,16,16s16-7.2,16-16S135.8,73.1,126.9,73.1L126.9,73.1z"/>
	</g>
	<g>
		<path class="st3" d="M131.4,67.1c-8.6,0-15.6-6.6-15.6-14.6c0-7.5,9-13.1,17.1-13.1c0.6,0,1.1,0,1.7,0.1c10.5,1,12.5,5.6,12.5,13
			C147.1,60.5,140,67.1,131.4,67.1z"/>
		<path class="st1" d="M132.9,39.7c0.6,0,1.1,0,1.6,0.1c10.2,1,12.2,5.2,12.2,12.6c0,7.8-6.8,14.2-15.2,14.2s-15.2-6.4-15.2-14.2
			C116.2,45.2,125,39.7,132.9,39.7 M132.9,38.9c-8.4,0-17.5,5.8-17.5,13.5c0,8.3,7.2,15,16,15s16-6.7,16-15S144.7,40,134.6,39
			C134,38.9,133.4,38.9,132.9,38.9L132.9,38.9z"/>
	</g>
	<g>
		<path class="st3" d="M144.7,33.6c-8.6,0-15.8-2.5-15.8-5.4c0-2.9,7.2-5.4,15.8-5.4s15.8,2.5,15.8,5.4
			C160.5,31.1,153.3,33.6,144.7,33.6z"/>
		<path class="st1" d="M144.7,23c9.3,0,15.5,2.7,15.5,5.2s-6.2,5.2-15.5,5.2c-9.3,0-15.5-2.7-15.5-5.2S135.4,23,144.7,23
			 M144.7,22.5c-8.9,0-16,2.5-16,5.7s7.2,5.7,16,5.7c8.9,0,16-2.5,16-5.7S153.6,22.5,144.7,22.5L144.7,22.5z"/>
	</g>
</g>
</svg>
