<?xml version="1.0" encoding="utf-8"?>
<!-- Generator: Adobe Illustrator 23.0.2, SVG Export Plug-In . SVG Version: 6.00 Build 0)  -->
<svg version="1.1" id="Laag_1" xmlns="http://www.w3.org/2000/svg" xmlns:xlink="http://www.w3.org/1999/xlink" x="0px" y="0px"
	 viewBox="0 0 295 295" style="enable-background:new 0 0 295 295;" xml:space="preserve">
<style type="text/css">
	.st0{fill:none;}
	.st1{fill:#B9B8B8;}
	.st2{fill:#E5E5E5;}
	.st3{fill:#818080;}
	.st4{fill:#03A9FF;}
</style>
<rect x="48.6" y="36.5" transform="matrix(-1 -4.489710e-11 4.489710e-11 -1 245.1613 283.0968)" class="st0" width="148" height="210"/>
<rect x="85.6" y="33.6" transform="matrix(-1 -4.489710e-11 4.489710e-11 -1 319.1613 277.2903)" class="st1" width="148" height="210"/>
<rect x="68.6" y="53.6" transform="matrix(-1 -4.489710e-11 4.489710e-11 -1 285.1613 317.2903)" class="st2" width="148" height="210"/>
<polygon class="st1" points="233.6,243.6 216.6,243.6 216.6,263.6 "/>
<g>
	
		<rect x="135.2" y="58.2" transform="matrix(0.8426 -0.5386 0.5386 0.8426 -50.8747 104.5131)" class="st1" width="36.3" height="162.2"/>
	
		<rect x="110.3" y="79.5" transform="matrix(0.8426 -0.5386 0.5386 0.8426 -29.1106 79.2105)" class="st2" width="21.2" height="19.7"/>
	
		<rect x="120.6" y="102.1" transform="matrix(0.8426 -0.5386 0.5386 0.8426 -36.1398 87.2631)" class="st2" width="21.2" height="6.6"/>
	
		<rect x="126" y="110.6" transform="matrix(0.8426 -0.5386 0.5386 0.8426 -39.8493 91.5126)" class="st2" width="21.2" height="6.6"/>
</g>
<path class="st1" d="M68.7,53.6h17v-20c0,0-7.8,4.7-10.5,7.8C72.5,44.5,68.7,53.6,68.7,53.6z"/>
<g>
	
		<rect x="130.6" y="88.3" transform="matrix(0.8426 -0.5386 0.5386 0.8426 -67.8342 106.7812)" class="st3" width="36.3" height="162.2"/>
	
		<rect x="105.7" y="109.7" transform="matrix(0.8426 -0.5386 0.5386 0.8426 -46.0701 81.4785)" class="st1" width="21.2" height="19.7"/>
	
		<rect x="116" y="132.3" transform="matrix(0.8426 -0.5386 0.5386 0.8426 -53.0992 89.5311)" class="st1" width="21.2" height="6.6"/>
	
		<rect x="121.4" y="140.8" transform="matrix(0.8426 -0.5386 0.5386 0.8426 -56.8087 93.7807)" class="st1" width="21.2" height="6.6"/>
</g>
<g>
	
		<rect x="126.2" y="116.7" transform="matrix(0.8426 -0.5386 0.5386 0.8426 -83.812 108.918)" class="st4" width="36.3" height="162.2"/>
	
		<rect x="101.4" y="138.1" transform="matrix(0.8426 -0.5386 0.5386 0.8426 -62.0479 83.6153)" class="st1" width="21.2" height="19.7"/>
	
		<rect x="111.6" y="160.7" transform="matrix(0.8426 -0.5386 0.5386 0.8426 -69.077 91.6679)" class="st1" width="21.2" height="6.6"/>
	
		<rect x="117.1" y="169.2" transform="matrix(0.8426 -0.5386 0.5386 0.8426 -72.7865 95.9174)" class="st1" width="21.2" height="6.6"/>
</g>
<rect x="171.6" y="22.6" transform="matrix(1 -4.771323e-03 4.771323e-03 1 -0.1683 0.9056)" class="st4" width="36.3" height="26.3"/>
<rect x="178.7" y="34.7" transform="matrix(1 -4.771323e-03 4.771323e-03 1 -0.1974 0.9038)" class="st1" width="21.2" height="14.2"/>
</svg>
