<?xml version="1.0" encoding="utf-8"?>
<!-- Generator: Adobe Illustrator 23.0.2, SVG Export Plug-In . SVG Version: 6.00 Build 0)  -->
<svg version="1.1" id="Laag_1" xmlns="http://www.w3.org/2000/svg" xmlns:xlink="http://www.w3.org/1999/xlink" x="0px" y="0px"
	 viewBox="0 0 295 295" style="enable-background:new 0 0 295 295;" xml:space="preserve">
<style type="text/css">
	.st0{fill:#818080;}
	.st1{fill:none;}
	.st2{fill:#B9B8B8;}
	.st3{fill:#03A9FF;}
	.st4{fill:#E5E5E5;}
</style>
<polygon class="st0" points="189.6,236.6 51.6,245.6 51.6,35.6 189.6,26.6 "/>
<rect x="88.6" y="38.5" class="st1" width="148" height="210"/>
<rect x="51.6" y="35.6" class="st2" width="148" height="210"/>
<polygon class="st3" points="199.6,245.6 70.6,254.6 70.6,44.6 199.6,35.6 "/>
<rect x="70.6" y="44.6" class="st4" width="148" height="210"/>
<rect x="87.6" y="58.7" class="st2" width="112.8" height="48.6"/>
<rect x="87.6" y="117.1" class="st3" width="112.8" height="15.2"/>
<rect x="87.6" y="162.7" transform="matrix(-1 -1.224647e-16 1.224647e-16 -1 287.9929 405.621)" class="st2" width="112.8" height="80.2"/>
<rect x="87.6" y="136.4" class="st2" width="112.8" height="5.8"/>
<polyline class="st0" points="87.6,107.4 116,72.4 134.5,93.2 158,63.3 200.4,107.4 "/>
</svg>
