<?xml version="1.0" encoding="UTF-8" standalone="no"?>
<svg
   xmlns:dc="http://purl.org/dc/elements/1.1/"
   xmlns:cc="http://creativecommons.org/ns#"
   xmlns:rdf="http://www.w3.org/1999/02/22-rdf-syntax-ns#"
   xmlns:svg="http://www.w3.org/2000/svg"
   xmlns="http://www.w3.org/2000/svg"
   xmlns:sodipodi="http://sodipodi.sourceforge.net/DTD/sodipodi-0.dtd"
   xmlns:inkscape="http://www.inkscape.org/namespaces/inkscape"
   viewBox="0 0 47.090401 50"
   version="1.1"
   id="svg4"
   sodipodi:docname="gear-light.svg"
   inkscape:version="0.92.5 (2060ec1f9f, 2020-04-08)"
   width="47.090401"
   height="50">
  <metadata
     id="metadata10">
    <rdf:RDF>
      <cc:Work
         rdf:about="">
        <dc:format>image/svg+xml</dc:format>
        <dc:type
           rdf:resource="http://purl.org/dc/dcmitype/StillImage" />
      </cc:Work>
    </rdf:RDF>
  </metadata>
  <defs
     id="defs8" />
  <sodipodi:namedview
     pagecolor="#ffffff"
     bordercolor="#666666"
     borderopacity="1"
     objecttolerance="10"
     gridtolerance="10"
     guidetolerance="10"
     inkscape:pageopacity="0"
     inkscape:pageshadow="2"
     inkscape:window-width="1920"
     inkscape:window-height="964"
     id="namedview6"
     showgrid="false"
     inkscape:zoom="0.4609375"
     inkscape:cx="19.821905"
     inkscape:cy="35.97169"
     inkscape:window-x="1920"
     inkscape:window-y="28"
     inkscape:window-maximized="1"
     inkscape:current-layer="svg4" />
  <!--! Font Awesome Pro 6.1.1 by @fontawesome - https://fontawesome.com License - https://fontawesome.com/license (Commercial License) Copyright 2022 Fonticons, Inc. -->
  <path
     d="m 14.952155,24.91211 c 0,-4.6582 3.84766,-8.59376 8.59375,-8.59376 4.74609,0 8.59375,3.93556 8.59375,8.59376 0,4.83398 -3.84766,8.68164 -8.59375,8.68164 -4.74609,0 -8.59375,-3.84766 -8.59375,-8.68164 z m 8.59375,-5.46876 c -3.01758,0 -5.46875,2.53907 -5.46875,5.46876 0,3.10547 2.45117,5.46875 5.46875,5.46875 3.01757,0 5.46875,-2.36328 5.46875,-5.46875 0,-2.92969 -2.45118,-5.46876 -5.46875,-5.46876 z M 4.9589951,22.51953 1.0205151,18.92579 C -0.06542493,17.93945 -0.31542493,16.32812 0.41894507,15.05859 L 3.3720751,9.94141 c 0.73437,-1.27149 2.25489,-1.86035 3.65429,-1.41407 l 5.0742299,1.61914 c 1.30859,-1.00976 2.7539,-1.84961 4.29687,-2.4873 l 1.14258,-5.20215 C 17.852545,1.02246 19.122075,0 20.596685,0 h 5.89843 c 1.47462,0 2.74415,1.02246 3.05665,2.45703 l 1.14257,5.20215 c 1.45508,0.63769 2.98829,1.47754 4.29688,2.4873 l 5.07812,-1.61914 c 1.39649,-0.44628 2.91992,0.14258 3.65235,1.41407 l 2.94922,5.11718 c 0.73242,1.26953 0.48828,2.88086 -0.59571,3.8672 l -3.94531,3.59374 c 0.10742,0.81055 0.16602,1.64062 0.16602,2.39258 0,0.92774 -0.0586,1.75781 -0.16602,2.56835 l 3.94531,3.59375 c 1.08399,0.98634 1.32813,2.59767 0.59571,3.8672 l -2.94922,5.11718 c -0.73243,1.26953 -2.25586,1.85547 -3.65235,1.41602 l -5.07812,-1.62109 c -1.30859,1.00585 -2.8418,1.8457 -4.29688,2.49023 l -1.14257,5.19531 C 29.239265,48.97461 27.969735,50 26.495115,50 h -5.89843 c -1.47461,0 -2.74414,-1.02539 -3.05664,-2.46094 l -1.14258,-5.19531 c -1.54297,-0.64453 -2.98828,-1.48438 -4.29687,-2.49023 l -5.0742299,1.62109 c -1.3994,0.43945 -2.91992,-0.14649 -3.65429,-1.41602 L 0.41894507,34.94141 c -0.73437,-1.26953 -0.48437,-2.88086 0.60157003,-3.8672 l 3.93848,-3.59375 c -0.10743,-0.81054 -0.16309,-1.64061 -0.16309,-2.56835 0,-0.75196 0.0556,-1.58203 0.16309,-2.39258 z m 9.0556599,-9.90234 -1.29882,1.00586 -6.6377099,-2.11915 -2.95312,5.1172 5.14551,4.68749 -0.21387,1.62109 c -0.0898,0.67383 -0.13574,1.3672 -0.13574,1.98243 0,0.79101 0.0459,1.48438 0.13574,2.1582 l 0.21387,1.6211 -5.14551,4.68749 2.95312,5.11719 6.6377099,-2.11914 1.29882,1.00586 c 1.08398,0.83985 2.29492,1.54297 3.57421,1.98242 l 1.51368,0.71289 1.49414,6.79688 h 5.89843 l 1.49414,-6.79688 1.42578,-0.71289 c 1.3672,-0.43945 2.57813,-1.14257 3.66212,-1.98242 l 1.29883,-1.00586 6.64062,2.11914 2.94922,-5.11719 -5.14648,-4.68749 0.21484,-1.6211 c 0.0879,-0.67382 0.13672,-1.36719 0.13672,-2.07031 0,-0.70312 -0.0488,-1.39649 -0.13672,-2.07032 l -0.21484,-1.62109 5.14648,-4.68749 -2.94922,-5.1172 -6.64062,2.11915 -1.29883,-1.00586 c -1.08399,-0.83985 -2.29492,-1.54297 -3.66212,-2.07032 l -1.42578,-0.625 -1.49414,-6.79687 h -5.89843 l -1.49414,6.79687 -1.51368,0.625 c -1.27929,0.52735 -2.49023,1.23047 -3.57421,2.07032 z"
     id="path2"
     inkscape:connector-curvature="0"
     style="stroke-width:0.09765624" />
</svg>
