<svg width="132" height="99" viewBox="0 0 132 99" fill="none" xmlns="http://www.w3.org/2000/svg">
<path d="M119.625 0H12.375C5.41406 0 0 5.67188 0 12.375V86.625C0 93.5859 5.41406 99 12.375 99H119.625C126.328 99 132 93.5859 132 86.625V12.375C132 5.67188 126.328 0 119.625 0ZM118.078 86.625H13.9219C12.8906 86.625 12.375 86.1094 12.375 85.0781V13.9219C12.375 13.1484 12.8906 12.375 13.9219 12.375H118.078C118.852 12.375 119.625 13.1484 119.625 13.9219V85.0781C119.625 86.1094 118.852 86.625 118.078 86.625ZM33 22.6875C27.0703 22.6875 22.6875 27.3281 22.6875 33C22.6875 38.9297 27.0703 43.3125 33 43.3125C38.6719 43.3125 43.3125 38.9297 43.3125 33C43.3125 27.3281 38.6719 22.6875 33 22.6875ZM24.75 74.25H107.25V53.625L84.5625 31.1953C83.2734 29.9062 81.4688 29.9062 80.1797 31.1953L49.5 61.875L39.1875 51.8203C37.8984 50.5312 36.0938 50.5312 34.8047 51.8203L24.75 61.875V74.25Z" fill="#64748B"/>
</svg>
