<?xml version="1.0" encoding="UTF-8"?>
<svg id="Layer_1" xmlns="http://www.w3.org/2000/svg" viewBox="0 0 396.85 396.85" >
  <g>
    <path d="M331.4,95.08c-.62-.94-95.17,52.49-96.18,53.08-8.28,5.36-33.88,20.66-42.55,20.66-8.12,0-28.19-11.52-37.77-17.68-1.01-.58-100.75-57-101.36-56.06-.62.94,98.05,58.83,99.05,59.41,2.92,1.88,28.82,18.32,40.08,18.32,11.85,0,44.75-21.2,44.88-21.31,1-.58,94.47-55.47,93.85-56.41Z" fill="currentColor"/>
    <path d="M370.39,75.64c-2.14-4.03-4.87-7.56-8.11-10.48-8.28-7.46-14.13-9.7-23.76-13.02-.25-.09-.51-.17-.73-.24l-115.32-33.76c-18.16-5.99-26.07-6.68-30.45-6.68-3.95,0-11.13.64-27.63,6.12-.19.05-.39.1-.55.15L47.17,51.9c-.26.07-.52.16-.75.24-9.62,3.32-15.47,5.56-23.78,13.03-3.23,2.91-5.95,6.43-8.11,10.47-3.69,6.92-5.32,14.88-4.6,22.4l15.19,158.41c1.71,17.76,15.07,28.29,24.81,34.56l41.1,30.18c1.92,1.41,4.11,2.37,6.42,2.82,1.12,2.08,2.69,3.88,4.59,5.28l47.07,34.57c8.35,6.99,29.31,23.25,43.52,23.25s35.76-16.65,47.55-26.46l94.66-69.53c9.9-6.38,23.26-16.92,24.96-34.67l6.85-71.52c.22-2.31-.06-4.64-.82-6.81,1.16-1.99,1.88-4.22,2.1-6.53l7.05-73.55c.72-7.51-.92-15.46-4.61-22.39Z" style="fill: none;"/>
  </g>
  <g>
    <path d="M331.4,95.08c-.62-.94-95.17,52.49-96.18,53.08-8.28,5.36-33.88,20.66-42.55,20.66-8.12,0-28.19-11.52-37.77-17.68-1.01-.58-100.75-57-101.36-56.06-.62.94,98.05,58.83,99.05,59.41,2.92,1.88,28.82,18.32,40.08,18.32,11.85,0,44.75-21.2,44.88-21.31,1-.58,94.47-55.47,93.85-56.41Z" fill="currentColor"/>
    <path d="M370.39,75.64c-2.14-4.03-4.87-7.56-8.11-10.48-8.28-7.46-14.13-9.7-23.76-13.02-.25-.09-.51-.17-.73-.24l-115.32-33.76c-18.16-5.99-26.07-6.68-30.45-6.68-3.95,0-11.13.64-27.63,6.12-.19.05-.39.1-.55.15L47.17,51.9c-.26.07-.52.16-.75.24-9.62,3.32-15.47,5.56-23.78,13.03-3.23,2.91-5.95,6.43-8.11,10.47-3.69,6.92-5.32,14.88-4.6,22.4l15.19,158.41c1.71,17.76,15.07,28.29,24.81,34.56l41.1,30.18c1.92,1.41,4.11,2.37,6.42,2.82,1.12,2.08,2.69,3.88,4.59,5.28l47.07,34.57c8.35,6.99,29.31,23.25,43.52,23.25s35.76-16.65,47.55-26.46l94.66-69.53c9.9-6.38,23.26-16.92,24.96-34.67l6.85-71.52c.22-2.31-.06-4.64-.82-6.81,1.16-1.99,1.88-4.22,2.1-6.53l7.05-73.55c.72-7.51-.92-15.46-4.61-22.39ZM350.2,183.14l-6.84,72.71c-.94,9.96-8.29,17.03-18,23.36l-95.24,71.28s-28.2,23.52-37.7,23.52-33.44-20.06-33.5-20.11l-47.46-35.52c-1.3-34.11-2.91-76.97-3.26-89.18l12.57,8.27c2.75,1.95,57.31,40.3,70.51,41.59,12.53,1.25,43-20.23,47.98-23.68l10.91-7.11.21-12.86-16.96,11.05-.3.21c-13.11,9.29-35.02,22.36-40.8,21.78-7.68-.75-51.63-29.8-65.43-39.71l-17.06-11.23-.65-.36c-2-.95-5.09-1.35-7.8.36-1.79,1.14-3.93,3.54-3.93,8.57,0,4.02,1.77,51.21,3.02,84.09l-41.33-30.93c-9.71-6.33-17.06-13.4-18-23.36l-15.16-161.05c-.43-4.56.62-9.41,2.8-13.59,1.22-2.34,2.79-4.48,4.69-6.22,5.93-5.44,9.26-6.8,18.25-9.95l116.45-34.73v.03c9.58-3.27,18.54-5.76,23.65-5.76,5.86,0,15.74,2.73,25.58,6.04l115.38,34.42c8.99,3.16,12.31,4.51,18.25,9.95,1.9,1.74,3.47,3.88,4.7,6.22,2.18,4.18,3.22,9.02,2.8,13.59l-7.04,74.77-36.72,23.91-.8,13.25,36.24-23.6Z" />
  </g>
</svg>