<?xml version="1.0" encoding="UTF-8"?>
<svg id="Laag_2" xmlns="http://www.w3.org/2000/svg" viewBox="0 0 726.74 747.7">
  <defs>
    <style>
      .cls-1 {
        stroke-width: 30px;
      }

      .cls-1, .cls-2 {
        fill: none;
        stroke-miterlimit: 10;
      }

      .cls-2 {
        stroke-width: 25px;
      }
    </style>
  </defs>
  <g id="Laag_2-2" data-name="Laag_2">
    <g>
      <polyline class="cls-2" points="610.83 374.76 614.56 374.76 637.11 360.39 698.31 321.18"/>
      <path class="cls-2" d="M188.04,628.86c-.86-24.25-1.24-156.96-1.82-181.23h0s-.11,0-.11,0c0-2.96-.32-5.95.06-8.86,1.56-12.05,11.18-20.32,24.18-11.84,2.25,1.47,4.62,2.77,6.89,4.22,36.8,23.59,73.41,47.44,110.65,70.37,8.63,5.31,17.38,10.46,26.64,14.7,5.71,2.62,11.63,4.66,17.98,2.32,4.62-1.7,9.18-3.6,13.64-5.67,18.65-8.67,35.62-20.08,52.91-30.97,10.59-6.67,25.89-15.97,36.39-22.79h6.78"/>
      <path class="cls-1" d="M15.04,175.74c-1.09-35.9,19.82-62.15,50.24-75.92,20.58-9.32,42.62-14.2,64.13-20.67,43.04-12.96,86.22-25.47,129.35-38.16,24.64-7.26,49.28-14.51,73.93-21.75,23.29-6.84,46.15-4.83,69.21,2.04,80.49,23.97,161.14,47.4,241.67,71.28,21.35,6.33,40.24,16.98,53.7,35.45,8.44,11.58,12.83,24.68,14.08,38.95,1.59,18.11-2,35.87-3.43,53.77-1.76,21.94-4.19,43.82-6.28,65.73-2.19,22.87-4.38,45.75-6.51,68.62-2.07,22.24-3.85,44.5-6.17,66.71-2.38,22.68-3.38,45.51-7.58,68.01-3.61,19.27-13.39,34.8-28.39,46.77-27,21.55-55.56,41.01-83.36,61.5-48.49,35.73-96.88,71.62-144.97,107.91-12.33,9.3-25.48,17.29-40.07,22.81-17.37,6.57-33.95,4.49-50.35-3.22-19.21-9.04-35.65-22.24-52.44-34.89-58.86-44.37-118.23-88.05-177.92-131.3-11.95-8.66-24.42-16.69-35.1-27-14.2-13.7-22.06-30.58-24.57-50.07-3.82-29.48-6.03-59.13-8.82-88.72-2.37-25.11-4.98-50.2-7.38-75.31-2.72-28.47-5.38-56.95-7.97-85.42-1.74-19.02-4.43-37.97-4.99-57.1Z"/>
      <path d="M637.01,165.51c-53.48,34.42-112.04,70.36-166.59,103.02-11.31,6.76-39.58,23.59-50.51,30.04-5.12,2.99-11.87,7.12-17.08,9.89-9.63,5.12-19.96,9.23-30.66,11.6-9.56,2.44-19.52,0-28.5-3.15-12.66-4.35-24.39-10.83-35.81-17.56-65.92-39.41-135.6-81.52-200.41-122.78,0,0-8.25-5.29-8.25-5.29,0,0-4.12-2.64-4.12-2.64-1.33-.93-3.08-1.53-3.55-3.22.57,1.66,2.34,2.12,3.7,2.97,0,0,4.28,2.38,4.28,2.38,52.39,29.41,109.59,62.13,161.53,92.31,19.99,11.21,47.74,28.61,67.66,38.91,10.86,5.22,23.41,10.85,35.29,11.08,2.17,0,4.35-.3,6.45-.79,10.04-2.17,19.61-5.94,28.73-10.73,78.22-44.95,158.97-92.03,237.83-136.04h0Z"/>
    </g>
  </g>
</svg>