<?xml version="1.0" encoding="utf-8"?>
<!-- Generator: Adobe Illustrator 26.5.0, SVG Export Plug-In . SVG Version: 6.00 Build 0)  -->
<svg version="1.1" id="Laag_1" xmlns="http://www.w3.org/2000/svg" xmlns:xlink="http://www.w3.org/1999/xlink" x="0px" y="0px"
	 viewBox="0 0 69 69" style="enable-background:new 0 0 69 69;" xml:space="preserve">
<style type="text/css">
	.st0{fill:#FF0048;}
	.st1{fill:#FFFFFF;}
</style>
<path id="Path_604" class="st0" d="M50.3,65.5c-23.2,9.3-41,0.2-48.5-27.1c-5.5-20,2-25.1,22.7-34.4C48.7-6.9,62.8,5.7,67.7,28.2
	C71.5,45.6,67.1,58.7,50.3,65.5z"/>
<g id="Group_8134" transform="translate(16.372 24.728)">
	<g id="Group_8132">
		<path id="Path_605" class="st1" d="M4.1,7.5V1.4C4.2,0.2,3.7-1,2.8-1.8C1.7-2.6,0.4-3-0.9-2.9h-5V15c0,0.5,0.3,0.8,0.9,0.8h2.7V11
			c0.6,0.6,1.4,0.9,2.3,0.8c1.1,0,2.2-0.4,3-1.1C3.7,9.8,4.1,8.7,4.1,7.5z M0.5,6.7c0,0.6-0.1,1.2-0.3,1.7C0,8.8-0.5,9-0.9,9
			c-0.5,0-1-0.2-1.4-0.6v-8.4h1.4c0.9,0,1.4,0.5,1.4,1.5L0.5,6.7z"/>
		<path id="Path_606" class="st1" d="M12.8-3.2c-1.2-0.1-2.3,0.7-2.6,1.8v-0.7c0-0.5-0.3-0.8-0.9-0.8H6.5l0,13.7
			c0,0.5,0.3,0.8,0.9,0.8h2.7V3.1c0.1-1.3,1-2.5,2.3-2.7c0.2,0,0.4-0.2,0.5-0.4v-3.1C12.9-3.2,12.9-3.2,12.8-3.2z"/>
		<path id="Path_607" class="st1" d="M23.5,11.5h2.7V0.5c0.2-0.6,0.8-1,1.4-0.9c0.8,0,1.2,0.5,1.2,1.4v9.7c0,0.5,0.3,0.7,0.8,0.7
			h2.8V0.8c0.1-1.1-0.3-2.1-1-2.9C30.9-2.9,30-3.3,29-3.2c-1.1-0.1-2.2,0.5-2.7,1.5v-0.4c0-0.5-0.3-0.8-0.9-0.8h-3.8l0,2.3
			c0,0.3,0.3,0.6,0.6,0.6h0.4v10.8C22.7,11.2,22.9,11.5,23.5,11.5z"/>
		<path id="Path_608" class="st1" d="M20.2,11.5V9.2c0-0.3-0.3-0.6-0.6-0.6H19V-2.2c0-0.5-0.3-0.8-0.9-0.8h-2.7v13.7
			c0,0.5,0.3,0.7,0.9,0.7H20.2z"/>
		<path id="Path_609" class="st1" d="M40.2,8.7h-0.4c-0.8,0-1.3-0.4-1.3-1.3v-7.4h2.1v-2.1c0-0.5-0.3-0.7-0.8-0.7h-1.4v-1.1
			c0-0.5-0.3-0.8-0.9-0.8H35V6.9c0,1.6,0.3,2.8,1,3.5c0.7,0.7,1.7,1.1,3.2,1.1h1.9V9.4C41.1,8.9,40.8,8.7,40.2,8.7z"/>
		<path id="Path_610" class="st1" d="M18.1-4.9c-1.4,0.6-2.5,0-3-1.7c-0.3-1.2,0.1-1.5,1.4-2.1c1.5-0.7,2.4,0.1,2.7,1.5
			C19.5-6.2,19.2-5.4,18.1-4.9z"/>
	</g>
	<g id="Group_8133" transform="translate(18.824 38.406)">
		<path id="Path_611" class="st1" d="M-1.6-22c-1.7-1.1-3.9-1.1-5.5,0c-0.7,0.6-1,1.5-1,2.4v4.5c-0.1,0.9,0.3,1.8,1,2.4
			c1.7,1.1,3.9,1.1,5.5,0c0.7-0.6,1-1.5,1-2.4v-0.6c0-0.4-0.2-0.6-0.7-0.6h-1.4c-0.4,0-0.7,0.2-0.7,0.6v0.6c0,0.7-0.3,1.1-1,1.1
			c-0.7,0-1-0.4-1-1.1v-4.6c0-0.7,0.3-1.1,1-1.1c0.7,0,1,0.4,1,1.1v0.6c0,0.4,0.2,0.6,0.7,0.6h1.4c0.4,0,0.7-0.2,0.7-0.6v-0.6
			C-0.5-20.5-0.9-21.4-1.6-22z"/>
		<path id="Path_612" class="st1" d="M7.5-22c-1.7-1.1-3.9-1.1-5.5,0c-0.7,0.6-1,1.5-1,2.4v4.5c-0.1,0.9,0.3,1.8,1,2.4
			c1.7,1.1,3.9,1.1,5.5,0c0.7-0.6,1-1.5,1-2.4v-4.5C8.5-20.5,8.1-21.4,7.5-22z M5.7-15.1c0,0.7-0.3,1.1-1,1.1c-0.7,0-1-0.4-1-1.1
			v-4.6c0-0.7,0.3-1.1,1-1.1c0.7,0,1,0.4,1,1.1V-15.1z"/>
		<path id="Path_613" class="st1" d="M-10.3-12c-1.1,0.5-2,0-2.4-1.3c-0.3-1,0.1-1.2,1.1-1.7c1.2-0.5,1.9,0.1,2.1,1.2
			C-9.1-13.1-9.5-12.3-10.3-12C-10.2-12.1-10.2-12.1-10.3-12z"/>
		<path id="Path_614" class="st1" d="M22.6-14.3h-0.4v-5.6c0-0.8-0.2-1.6-0.7-2.2c-0.5-0.5-1.2-0.8-2-0.8c-1,0-1.9,0.5-2.4,1.3
			c-0.4-0.8-1.3-1.3-2.3-1.2c-0.8-0.1-1.6,0.3-2,1.1v-0.3c0-0.4-0.2-0.6-0.7-0.6H9.4v0.5l0,0v1.3c0,0.2,0.2,0.4,0.4,0.4h0h0.3v7.8
			c0,0.4,0.2,0.5,0.7,0.5h2v-8c0.1-0.4,0.6-0.7,1-0.7c0.6,0,0.9,0.4,0.9,1.1v7.1c0,0.4,0.2,0.5,0.6,0.5h2.1v-8
			c0.2-0.4,0.6-0.7,1-0.7c0.6,0,0.9,0.4,0.9,1.1v7.1c0,0.4,0.2,0.5,0.6,0.5h2.9v-1.7C23.1-14.1,22.9-14.3,22.6-14.3
			C22.6-14.3,22.6-14.3,22.6-14.3z"/>
	</g>
</g>
</svg>
